<svg width="82" height="24" viewBox="0 0 82 24" fill="none" xmlns="http://www.w3.org/2000/svg">
<rect x="53" width="29" height="4" rx="2" fill="#1F2324"/>
<rect x="53" y="10" width="29" height="4" rx="2" fill="#1F2324"/>
<rect x="53" y="20" width="29" height="4" rx="2" fill="#1F2324"/>
<path d="M0.526 15V5.2H1.674L6.07 12.606H5.454L9.794 5.2H10.942L10.956 15H9.612L9.598 7.314H9.92L6.056 13.81H5.412L1.52 7.314H1.87V15H0.526ZM17.0865 15.084C16.2931 15.084 15.5931 14.9207 14.9865 14.594C14.3891 14.2673 13.9225 13.8193 13.5865 13.25C13.2598 12.6807 13.0965 12.0273 13.0965 11.29C13.0965 10.5527 13.2551 9.89933 13.5725 9.33C13.8991 8.76067 14.3425 8.31733 14.9025 8C15.4718 7.67333 16.1111 7.51 16.8205 7.51C17.5391 7.51 18.1738 7.66867 18.7245 7.986C19.2751 8.30333 19.7045 8.75133 20.0125 9.33C20.3298 9.89933 20.4885 10.5667 20.4885 11.332C20.4885 11.388 20.4838 11.4533 20.4745 11.528C20.4745 11.6027 20.4698 11.6727 20.4605 11.738H14.1465V10.772H19.7605L19.2145 11.108C19.2238 10.632 19.1258 10.2073 18.9205 9.834C18.7151 9.46067 18.4305 9.17133 18.0665 8.966C17.7118 8.75133 17.2965 8.644 16.8205 8.644C16.3538 8.644 15.9385 8.75133 15.5745 8.966C15.2105 9.17133 14.9258 9.46533 14.7205 9.848C14.5151 10.2213 14.4125 10.6507 14.4125 11.136V11.36C14.4125 11.8547 14.5245 12.298 14.7485 12.69C14.9818 13.0727 15.3038 13.3713 15.7145 13.586C16.1251 13.8007 16.5965 13.908 17.1285 13.908C17.5671 13.908 17.9638 13.8333 18.3185 13.684C18.6825 13.5347 18.9998 13.3107 19.2705 13.012L20.0125 13.88C19.6765 14.272 19.2565 14.5707 18.7525 14.776C18.2578 14.9813 17.7025 15.084 17.0865 15.084ZM22.5735 15V7.58H23.9175V10.73H28.1455V7.58H29.4895V15H28.1455V11.892H23.9175V15H22.5735ZM32.1028 15V7.58H33.4468V10.618H35.6868V11.864H33.4468V15H32.1028ZM38.6688 15.084C37.9408 15.084 37.2921 14.9207 36.7228 14.594C36.1628 14.2673 35.7194 13.8193 35.3928 13.25C35.0661 12.6713 34.9028 12.018 34.9028 11.29C34.9028 10.5527 35.0661 9.89933 35.3928 9.33C35.7194 8.75133 36.1628 8.30333 36.7228 7.986C37.2921 7.66867 37.9408 7.51 38.6688 7.51C39.3874 7.51 40.0314 7.66867 40.6008 7.986C41.1701 8.30333 41.6181 8.75133 41.9448 9.33C42.2714 9.89933 42.4348 10.5527 42.4348 11.29C42.4348 12.0273 42.2714 12.6807 41.9448 13.25C41.6181 13.8193 41.1701 14.2673 40.6008 14.594C40.0314 14.9207 39.3874 15.084 38.6688 15.084ZM38.6688 13.908C39.1354 13.908 39.5508 13.8007 39.9148 13.586C40.2788 13.362 40.5681 13.0587 40.7828 12.676C40.9974 12.284 41.1048 11.822 41.1048 11.29C41.1048 10.758 40.9974 10.3007 40.7828 9.918C40.5681 9.526 40.2788 9.22267 39.9148 9.008C39.5508 8.79333 39.1354 8.686 38.6688 8.686C38.2114 8.686 37.7961 8.79333 37.4228 9.008C37.0588 9.22267 36.7694 9.526 36.5548 9.918C36.3401 10.3007 36.2328 10.758 36.2328 11.29C36.2328 11.822 36.3401 12.284 36.5548 12.676C36.7694 13.0587 37.0588 13.362 37.4228 13.586C37.7961 13.8007 38.2114 13.908 38.6688 13.908Z" fill="#1F2324"/>
</svg>
